<svg width="273" height="32" viewBox="0 0 273 32" fill="none" xmlns="http://www.w3.org/2000/svg">
<g clip-path="url(#clip0_1_2351)">
<path d="M8.06666 10.7332C4.42666 14.3732 4.42666 20.2666 8.03999 23.9066C9.99999 19.3732 13.4933 15.5866 17.8533 13.3332C14.16 16.4532 11.5733 20.8132 10.6667 25.7599C14.1333 27.3999 18.4 26.7999 21.2667 23.9332C25.2533 19.9466 26.3733 9.0799 26.6133 6.09323C26.64 5.6799 26.3067 5.34656 25.9067 5.38656C22.92 5.62656 12.0533 6.74656 8.06666 10.7332Z" fill="url(#paint0_linear_1_2351)"/>
</g>
<path d="M46.1427 32C45.0359 32 44.0121 31.7233 43.0713 31.1699C42.1306 30.6165 41.3835 29.8694 40.8301 28.9287C40.2767 27.9879 40 26.9641 40 25.8573V8.2594C40 7.12495 40.2767 6.10117 40.8301 5.18807C41.3835 4.2473 42.1306 3.50022 43.0713 2.94682C44.0121 2.39343 45.0359 2.11673 46.1427 2.11673H63.6991C64.8335 2.11673 65.8573 2.39343 66.7704 2.94682C67.7112 3.50022 68.4583 4.2473 69.0117 5.18807C69.5927 6.10117 69.8833 7.12495 69.8833 8.2594V11.0817H63.3671V8.59144H46.4332V25.5253H63.3671V21.0428H56.8923V14.5681H69.8833V25.8573C69.8833 26.9641 69.5927 27.9879 69.0117 28.9287C68.4583 29.8694 67.7112 30.6165 66.7704 31.1699C65.8573 31.7233 64.8335 32 63.6991 32H46.1427Z" fill="white"/>
<path d="M80.3041 32C79.1974 32 78.1874 31.7233 77.2743 31.1699C76.3612 30.6165 75.628 29.8833 75.0746 28.9702C74.5489 28.0571 74.286 27.061 74.286 25.9818V16.7678H92.3405V14.2776H74.286V7.92737H92.6725C93.7793 7.92737 94.7892 8.20406 95.7023 8.75746C96.6154 9.31085 97.3348 10.0441 97.8606 10.9572C98.414 11.8703 98.6907 12.8664 98.6907 13.9455V32H80.3041ZM80.6362 25.6498H92.3405V22.3294H80.6362V25.6498Z" fill="white"/>
<path d="M108.028 32C106.949 32 105.953 31.7233 105.04 31.1699C104.126 30.6165 103.393 29.8833 102.84 28.9702C102.286 28.0571 102.01 27.061 102.01 25.9818V0H108.401V25.6498H113.257V32H108.028Z" fill="white"/>
<path d="M122.498 32C121.391 32 120.381 31.7233 119.468 31.1699C118.555 30.6165 117.822 29.8833 117.268 28.9702C116.742 28.0571 116.48 27.061 116.48 25.9818V16.7678H134.534V14.2776H116.48V7.92737H134.866C135.973 7.92737 136.983 8.20406 137.896 8.75746C138.809 9.31085 139.528 10.0441 140.054 10.9572C140.608 11.8703 140.884 12.8664 140.884 13.9455V32H122.498ZM122.83 25.6498H134.534V22.3294H122.83V25.6498Z" fill="white"/>
<path d="M149.815 32C148.736 32 147.74 31.7233 146.827 31.1699C145.914 30.6165 145.181 29.8833 144.627 28.9702C144.074 28.0571 143.797 27.061 143.797 25.9818V13.9455C143.797 12.8664 144.074 11.8703 144.627 10.9572C145.181 10.0441 145.914 9.31085 146.827 8.75746C147.74 8.20406 148.736 7.92737 149.815 7.92737H168.16V14.2776H150.147V25.6498H168.202V32H149.815Z" fill="white"/>
<path d="M177.663 32C176.557 32 175.547 31.7233 174.634 31.1699C173.72 30.6165 172.987 29.8833 172.434 28.9702C171.88 28.0571 171.604 27.061 171.604 25.9818V0.788586H177.954V7.92737H186.877V14.2776H177.954V25.6498H186.877V32H177.663Z" fill="white"/>
<path d="M190.288 32V7.92737H196.638V32H190.288ZM190.288 6.4332V0.041504H196.638V6.4332H190.288Z" fill="white"/>
<path d="M206.195 32C205.116 32 204.12 31.7233 203.207 31.1699C202.293 30.6165 201.56 29.8833 201.007 28.9702C200.453 28.0571 200.177 27.061 200.177 25.9818V13.9455C200.177 12.8664 200.453 11.8703 201.007 10.9572C201.56 10.0441 202.293 9.31085 203.207 8.75746C204.12 8.20406 205.116 7.92737 206.195 7.92737H224.54V14.2776H206.527V25.6498H224.581V32H206.195Z" fill="white"/>
<path d="M229.16 32V25.6498H235.51V32H229.16Z" fill="white"/>
<path d="M238.764 32V7.92737H245.114V32H238.764ZM238.764 6.4332V0.041504H245.114V6.4332H238.764Z" fill="white"/>
<path d="M254.225 32C253.146 32 252.15 31.7233 251.237 31.1699C250.324 30.6165 249.59 29.8833 249.037 28.9702C248.484 28.0571 248.207 27.061 248.207 25.9818V13.9455C248.207 12.8664 248.484 11.8703 249.037 10.9572C249.59 10.0441 250.324 9.31085 251.237 8.75746C252.15 8.20406 253.146 7.92737 254.225 7.92737H266.593C267.7 7.92737 268.71 8.20406 269.623 8.75746C270.536 9.31085 271.256 10.0441 271.781 10.9572C272.335 11.8703 272.612 12.8664 272.612 13.9455V25.9818C272.612 27.061 272.335 28.0571 271.781 28.9702C271.256 29.8833 270.536 30.6165 269.623 31.1699C268.71 31.7233 267.7 32 266.593 32H254.225ZM254.557 25.6498H266.261V14.2776H254.557V25.6498Z" fill="white"/>
<defs>
<linearGradient id="paint0_linear_1_2351" x1="15.1549" y1="15.287" x2="26.0296" y2="23.7663" gradientUnits="userSpaceOnUse">
<stop stop-color="#FF3B00"/>
<stop offset="1" stop-color="#FF8D00"/>
</linearGradient>
<clipPath id="clip0_1_2351">
<rect width="32" height="32" fill="white"/>
</clipPath>
</defs>
</svg>
